# xmcd
#
# Track frame offsets:
#	150
#	20536
#	38133
#	57613
#	79400
#	95224
#	113429
#	141474
#	159953
#	183790
#	205747
#	225272
#
# Disc length: 3229 seconds
#
# Revision: 0
# Processed by: cddbd v1.5.2PL0 Copyright (c) Steve Scherf et al.
# Submitted via: audiograbber 1.83.01
#
DISCID=990c9b0c
DTITLE=Various Artist - Them Down Home Blues, Vol. 1
DYEAR=1900
DGENRE=Blues
TTITLE0=Carl Marshall - Alberta
TTITLE1=Billy Rome - Hennessey and BBQ Wings
TTITLE2=Da' Twinky Man - Buffet Booty Woman
TTITLE3=Ace Jones - Funky Munky
TTITLE4=Lee 'Shot' Williams - Get Your Lies Straight
TTITLE5=Nellie 'Tiger' Travis - Dime and a Quarter
TTITLE6=Uvee Hayes - Built for Comfort
TTITLE7=Dicky Williams - Sugar Daddy's Back
TTITLE8=Barbara Carr - Cuttin' Up Sideways
TTITLE9=Chick Willis - Juke Joint
TTITLE10=Zay - Back Door Jody
TTITLE11=Clarence Dobbins - Blues Uprising
EXTD=
EXTT0=
EXTT1=
EXTT2=
EXTT3=
EXTT4=
EXTT5=
EXTT6=
EXTT7=
EXTT8=
EXTT9=
EXTT10=
EXTT11=
PLAYORDER=
